<svg width="276" height="92" viewBox="0 0 276 92" fill="none" xmlns="http://www.w3.org/2000/svg">
<path d="M252.941 31.1457C251.429 31.7963 249.84 32.2494 248.212 32.4937C248.973 32.3632 250.093 30.9935 250.539 30.4391C251.216 29.6028 251.732 28.6481 252.06 27.6235C252.06 27.5474 252.137 27.4387 252.06 27.3843C252.022 27.3634 251.979 27.3524 251.935 27.3524C251.892 27.3524 251.849 27.3634 251.81 27.3843C250.043 28.3414 248.162 29.0719 246.212 29.5585C246.144 29.5793 246.072 29.5811 246.003 29.5639C245.934 29.5467 245.871 29.511 245.821 29.4607C245.669 29.2799 245.505 29.1092 245.331 28.9497C244.536 28.2371 243.634 27.6538 242.657 27.2213C241.339 26.6805 239.915 26.4463 238.494 26.5364C237.114 26.6235 235.767 26.9936 234.537 27.6235C233.325 28.2876 232.26 29.1899 231.406 30.276C230.507 31.3939 229.859 32.6913 229.503 34.0808C229.21 35.4026 229.177 36.7686 229.405 38.1031C229.405 38.3314 229.405 38.364 229.21 38.3314C221.459 37.1899 215.099 34.4396 209.903 28.5366C209.675 28.2757 209.555 28.2757 209.37 28.5366C207.109 31.9719 208.207 37.4073 211.034 40.0925C211.414 40.4512 211.805 40.7991 212.218 41.1252C210.923 41.0332 209.658 40.682 208.501 40.0925C208.283 39.9511 208.164 40.0272 208.153 40.2881C208.122 40.6498 208.122 41.0135 208.153 41.3752C208.38 43.1087 209.063 44.7508 210.132 46.1337C211.202 47.5166 212.62 48.5905 214.24 49.2458C214.636 49.415 215.047 49.5426 215.469 49.6263C214.269 49.8625 213.039 49.8992 211.827 49.735C211.566 49.6806 211.468 49.822 211.566 50.072C213.164 54.4204 216.632 55.7466 219.176 56.4858C219.524 56.5402 219.872 56.5402 220.263 56.6272C220.263 56.6272 220.263 56.6272 220.198 56.6924C219.448 58.0621 216.415 58.9862 215.023 59.4645C212.483 60.3768 209.775 60.7255 207.087 60.4864C206.663 60.4211 206.566 60.432 206.457 60.4864C206.348 60.5407 206.457 60.6603 206.576 60.769C207.12 61.1277 207.664 61.443 208.229 61.7474C209.912 62.6653 211.691 63.3944 213.534 63.9216C223.079 66.5523 233.819 64.6173 240.983 57.4968C246.614 51.9092 248.593 44.2017 248.593 36.4833C248.593 36.1898 248.951 36.0159 249.158 35.8637C250.583 34.7536 251.839 33.4427 252.887 31.9719C253.068 31.7526 253.161 31.4735 253.148 31.1892C253.148 31.0261 253.148 31.0587 252.941 31.1457Z" fill="#C0BFBF"/>
<path d="M129.446 45.7812C129.446 41.179 133.178 37.4472 137.783 37.4472C142.388 37.4472 146.122 41.179 146.122 45.7812C146.122 50.3834 142.388 54.1152 137.783 54.1152C133.178 54.1152 129.446 50.3834 129.446 45.7812ZM124.938 45.7812C124.938 52.8712 130.688 58.6184 137.783 58.6184C144.877 58.6184 150.627 52.8712 150.627 45.7812C150.627 38.6912 144.877 32.9441 137.783 32.9441C130.688 32.9441 124.938 38.6912 124.938 45.7812ZM148.134 32.435C148.134 33.0284 148.31 33.6085 148.639 34.102C148.969 34.5954 149.438 34.9801 149.986 35.2074C150.535 35.4347 151.138 35.4944 151.72 35.3788C152.303 35.2633 152.838 34.9778 153.258 34.5584C153.678 34.139 153.964 33.6046 154.08 33.0227C154.196 32.4408 154.137 31.8376 153.91 31.2893C153.683 30.741 153.298 30.2723 152.805 29.9425C152.311 29.6127 151.731 29.4365 151.137 29.4362H151.136C150.34 29.4366 149.577 29.7526 149.014 30.3149C148.451 30.8772 148.135 31.6397 148.134 32.435V32.435ZM127.677 66.1306C125.238 66.0196 123.912 65.6136 123.031 65.2706C121.863 64.8162 121.03 64.275 120.154 63.4006C119.278 62.5262 118.735 61.6942 118.283 60.527C117.939 59.647 117.533 58.3218 117.422 55.8844C117.301 53.2493 117.277 52.4576 117.277 45.7814C117.277 39.1052 117.303 38.3158 117.422 35.6784C117.533 33.241 117.942 31.9184 118.283 31.0358C118.737 29.8686 119.279 29.0359 120.154 28.1603C121.029 27.2847 121.861 26.7427 123.031 26.2903C123.912 25.9471 125.238 25.541 127.677 25.4302C130.313 25.309 131.105 25.2848 137.783 25.2848C144.46 25.2848 145.253 25.311 147.892 25.4302C150.331 25.5412 151.654 25.9503 152.537 26.2903C153.705 26.7427 154.538 27.2859 155.414 28.1603C156.29 29.0347 156.831 29.8686 157.285 31.0358C157.629 31.9158 158.035 33.241 158.146 35.6784C158.267 38.3158 158.291 39.1052 158.291 45.7814C158.291 52.4576 158.267 53.2471 158.146 55.8844C158.035 58.3218 157.627 59.6466 157.285 60.527C156.831 61.6942 156.289 62.527 155.414 63.4006C154.539 64.2742 153.705 64.8162 152.537 65.2706C151.656 65.6138 150.331 66.0198 147.892 66.1306C145.255 66.2518 144.463 66.276 137.783 66.276C131.102 66.276 130.312 66.2518 127.677 66.1306V66.1306ZM127.469 20.9327C124.806 21.0538 122.987 21.4758 121.398 22.0938C119.752 22.732 118.359 23.5882 116.966 24.9774C115.574 26.3666 114.72 27.7612 114.081 29.406C113.463 30.9952 113.04 32.8129 112.919 35.4743C112.796 38.1399 112.768 38.992 112.768 45.7812C112.768 52.5704 112.796 53.4226 112.919 56.0882C113.04 58.7498 113.463 60.5672 114.081 62.1564C114.72 63.8002 115.574 65.1964 116.966 66.585C118.358 67.9736 119.752 68.8287 121.398 69.4687C122.99 70.0867 124.806 70.5086 127.469 70.6298C130.138 70.751 130.989 70.7812 137.783 70.7812C144.576 70.7812 145.429 70.753 148.096 70.6298C150.759 70.5086 152.577 70.0867 154.168 69.4687C155.812 68.8287 157.207 67.9742 158.599 66.585C159.991 65.1958 160.844 63.8002 161.484 62.1564C162.103 60.5672 162.527 58.7496 162.646 56.0882C162.767 53.4206 162.796 52.5704 162.796 45.7812C162.796 38.992 162.767 38.1399 162.646 35.4743C162.525 32.8127 162.103 30.9942 161.484 29.406C160.844 27.7622 159.989 26.3688 158.599 24.9774C157.209 23.586 155.812 22.732 154.17 22.0938C152.577 21.4758 150.759 21.0518 148.098 20.9327C145.431 20.8115 144.578 20.7812 137.785 20.7812C130.991 20.7812 130.138 20.8095 127.469 20.9327Z" fill="url(#paint0_radial_32_15635)"/>
<path d="M129.446 45.7812C129.446 41.179 133.178 37.4472 137.783 37.4472C142.388 37.4472 146.122 41.179 146.122 45.7812C146.122 50.3835 142.388 54.1152 137.783 54.1152C133.178 54.1152 129.446 50.3835 129.446 45.7812ZM124.938 45.7812C124.938 52.8712 130.688 58.6185 137.783 58.6185C144.877 58.6185 150.627 52.8712 150.627 45.7812C150.627 38.6913 144.877 32.944 137.783 32.944C130.688 32.944 124.938 38.6913 124.938 45.7812ZM148.134 32.4351C148.134 33.0284 148.31 33.6085 148.639 34.102C148.969 34.5954 149.438 34.9801 149.986 35.2074C150.535 35.4347 151.138 35.4944 151.72 35.3788C152.303 35.2633 152.838 34.9778 153.258 34.5584C153.678 34.139 153.964 33.6046 154.08 33.0227C154.196 32.4408 154.137 31.8376 153.91 31.2893C153.683 30.741 153.298 30.2723 152.805 29.9425C152.311 29.6127 151.731 29.4365 151.137 29.4362H151.136C150.34 29.4366 149.577 29.7526 149.014 30.3149C148.451 30.8772 148.135 31.6397 148.134 32.4351ZM127.677 66.1306C125.238 66.0196 123.912 65.6136 123.031 65.2706C121.863 64.8162 121.03 64.2751 120.154 63.4007C119.278 62.5263 118.735 61.6942 118.283 60.5271C117.939 59.6471 117.533 58.3218 117.422 55.8844C117.301 53.2492 117.277 52.4577 117.277 45.7815C117.277 39.1053 117.303 38.3158 117.422 35.6784C117.533 33.241 117.942 31.9184 118.283 31.0358C118.737 29.8686 119.279 29.0359 120.154 28.1603C121.029 27.2847 121.861 26.7427 123.031 26.2903C123.912 25.9471 125.238 25.541 127.677 25.4302C130.313 25.309 131.105 25.2848 137.783 25.2848C144.46 25.2848 145.253 25.311 147.892 25.4302C150.331 25.5412 151.654 25.9503 152.537 26.2903C153.705 26.7427 154.538 27.2859 155.414 28.1603C156.29 29.0347 156.831 29.8686 157.285 31.0358C157.629 31.9158 158.035 33.241 158.146 35.6784C158.267 38.3158 158.291 39.1053 158.291 45.7815C158.291 52.4577 158.267 53.247 158.146 55.8844C158.035 58.3218 157.627 59.6467 157.285 60.5271C156.831 61.6942 156.289 62.5271 155.414 63.4007C154.539 64.2743 153.705 64.8162 152.537 65.2706C151.656 65.6138 150.331 66.0198 147.892 66.1306C145.255 66.2518 144.463 66.2761 137.783 66.2761C131.102 66.2761 130.312 66.2518 127.677 66.1306ZM127.469 20.9326C124.806 21.0538 122.987 21.4758 121.398 22.0938C119.752 22.732 118.359 23.5882 116.966 24.9774C115.574 26.3666 114.72 27.7612 114.081 29.406C113.463 30.9952 113.04 32.8128 112.919 35.4742C112.796 38.1398 112.768 38.9921 112.768 45.7812C112.768 52.5704 112.796 53.4226 112.919 56.0882C113.04 58.7498 113.463 60.5672 114.081 62.1564C114.72 63.8002 115.574 65.1964 116.966 66.585C118.358 67.9736 119.752 68.8287 121.398 69.4687C122.99 70.0867 124.806 70.5086 127.469 70.6298C130.138 70.751 130.989 70.7812 137.783 70.7812C144.576 70.7812 145.429 70.753 148.096 70.6298C150.759 70.5086 152.577 70.0867 154.168 69.4687C155.812 68.8287 157.207 67.9742 158.599 66.585C159.991 65.1958 160.844 63.8002 161.484 62.1564C162.103 60.5672 162.527 58.7496 162.646 56.0882C162.767 53.4206 162.796 52.5704 162.796 45.7812C162.796 38.9921 162.767 38.1398 162.646 35.4742C162.525 32.8126 162.103 30.9942 161.484 29.406C160.844 27.7622 159.989 26.3688 158.599 24.9774C157.209 23.586 155.812 22.732 154.17 22.0938C152.577 21.4758 150.759 21.0518 148.098 20.9326C145.431 20.8115 144.578 20.7812 137.785 20.7812C130.991 20.7812 130.138 20.8095 127.469 20.9326Z" fill="#C0BFBF"/>
<path d="M56.4927 48.6408L57.7973 40.3593H49.7611V34.9764C49.7611 32.7119 50.883 30.4992 54.4706 30.4992H58.1756V23.447C56.018 23.1033 53.8378 22.9173 51.6527 22.8906C45.0385 22.8906 40.7204 26.8631 40.7204 34.0447V40.3593H33.3887V48.6408H40.7204V68.6715H49.7611V48.6408H56.4927Z" fill="#C0BFBF"/>
<defs>
<radialGradient id="paint0_radial_32_15635" cx="0" cy="0" r="1" gradientUnits="userSpaceOnUse" gradientTransform="translate(119.414 71.0175) scale(65.31 65.2708)">
<stop offset="0.09" stop-color="#FA8F21"/>
<stop offset="0.78" stop-color="#D82D7E"/>
</radialGradient>
</defs>
</svg>
